HIERARCHY
ROOT SimulationBone
{
	OFFSET 0.000000 0.000000 0.000000
	CHANNELS 6 Xposition Yposition Zposition Zrotation Yrotation Xrotation 
	JOINT Hips
	{
		OFFSET 0.000000 0.000000 0.000000
		CHANNELS 6 Xposition Yposition Zposition Zrotation Yrotation Xrotation 
		JOINT LeftUpLeg
		{
			OFFSET 0.103458 1.857831 10.548505
			CHANNELS 3 Zrotation Yrotation Xrotation
			JOINT LeftLeg
			{
				OFFSET 43.500000 -0.000031 0.000002
				CHANNELS 3 Zrotation Yrotation Xrotation
				JOINT LeftFoot
				{
					OFFSET 42.372200 0.000023 0.000003
					CHANNELS 3 Zrotation Yrotation Xrotation
					JOINT LeftToe
					{
						OFFSET 17.299997 -0.000001 -0.000010
						CHANNELS 3 Zrotation Yrotation Xrotation
						End Site
						{
							OFFSET 0.000000 0.000000 0.000000
						}
					}
				}
			}
		}
		JOINT RightUpLeg
		{
			OFFSET 0.103457 1.857828 -10.548510
			CHANNELS 3 Zrotation Yrotation Xrotation
			JOINT RightLeg
			{
				OFFSET 43.500046 -0.000015 0.000002
				CHANNELS 3 Zrotation Yrotation Xrotation
				JOINT RightFoot
				{
					OFFSET 42.372261 -0.000008 0.000023
					CHANNELS 3 Zrotation Yrotation Xrotation
					JOINT RightToe
					{
						OFFSET 17.299990 -0.000007 -0.000002
						CHANNELS 3 Zrotation Yrotation Xrotation
						End Site
						{
							OFFSET 0.000000 0.000000 0.000000
						}
					}
				}
			}
		}
		JOINT Spine
		{
			OFFSET 6.901967 -2.603726 -0.000001
			CHANNELS 3 Zrotation Yrotation Xrotation
			JOINT Spine1
			{
				OFFSET 12.588100 -0.000009 -0.000003
				CHANNELS 3 Zrotation Yrotation Xrotation
				JOINT Spine2
				{
					OFFSET 12.343202 0.000008 0.000008
					CHANNELS 3 Zrotation Yrotation Xrotation
					JOINT Neck
					{
						OFFSET 25.832897 -0.000015 -0.000004
						CHANNELS 3 Zrotation Yrotation Xrotation
						JOINT Head
						{
							OFFSET 11.766609 0.000013 -0.000006
							CHANNELS 3 Zrotation Yrotation Xrotation
							End Site
							{
								OFFSET 0.000000 0.000000 0.000000
							}
						}
					}
					JOINT LeftShoulder
					{
						OFFSET 19.745911 -1.480373 6.000098
						CHANNELS 3 Zrotation Yrotation Xrotation
						JOINT LeftArm
						{
							OFFSET 11.284123 -0.000007 -0.000032
							CHANNELS 3 Zrotation Yrotation Xrotation
							JOINT LeftForeArm
							{
								OFFSET 33.000050 0.000005 0.000031
								CHANNELS 3 Zrotation Yrotation Xrotation
								JOINT LeftHand
								{
									OFFSET 25.200008 0.000017 0.000013
									CHANNELS 3 Zrotation Yrotation Xrotation
									End Site
									{
										OFFSET 0.000000 0.000000 0.000000
									}
								}
							}
						}
					}
					JOINT RightShoulder
					{
						OFFSET 19.746092 -1.480379 -6.000077
						CHANNELS 3 Zrotation Yrotation Xrotation
						JOINT RightArm
						{
							OFFSET 11.284136 -0.000017 -0.000017
							CHANNELS 3 Zrotation Yrotation Xrotation
							JOINT RightForeArm
							{
								OFFSET 33.000099 0.000019 0.000015
								CHANNELS 3 Zrotation Yrotation Xrotation
								JOINT RightHand
								{
									OFFSET 25.199780 0.000140 0.000408
									CHANNELS 3 Zrotation Yrotation Xrotation
									End Site
									{
										OFFSET 0.000000 0.000000 0.000000
									}
								}
							}
						}
					}
				}
			}
		}
	}
}
MOTION
Frames: 5
Frame Time: 0.016667
-253.844786 0.000000 -517.448661 0.000000 43.647190 0.000000 1.195063 89.804680 -1.822423 97.116443 -4.491696 -176.783800 173.945329 -6.318503 175.308703 -27.695883 -5.127506 0.135059 80.875033 -1.607262 -6.929221 21.454560 0.003105 0.000019 155.537300 4.282808 -173.123412 -81.512918 -1.734257 6.540202 76.096024 -4.337063 0.905243 21.454565 -0.003100 0.000005 8.497372 -0.792832 -1.783120 7.005769 -1.476496 -3.611121 6.688261 -1.498394 -3.602156 11.449046 -1.731619 -6.911638 -11.538291 5.442448 -9.024342 -167.295401 -75.333772 -14.437439 -0.079972 57.819960 38.604822 -35.258163 -19.145391 1.635636 10.183858 -4.675489 12.689881 -159.707210 74.947805 22.246716 -18.403507 -64.760211 -12.423205 -78.195338 11.839222 -2.616618 -13.344419 16.673151 -47.781120 
-253.378666 0.000000 -518.917350 0.000000 42.850664 0.000000 1.115965 90.139503 -1.761817 96.724948 -4.408675 -177.493200 175.672717 -5.994341 174.236611 -26.008084 -5.066845 -0.269697 81.146894 -1.364321 -7.199123 21.454558 0.003102 0.000018 153.291118 4.213975 -172.306181 -80.247580 -1.288427 5.625137 75.723726 -4.196047 -0.837228 21.454559 -0.003100 0.000005 8.425191 -0.750820 -1.824519 6.860476 -1.392428 -3.690475 6.543017 -1.414809 -3.682018 11.092138 -1.527874 -6.692021 -11.996724 5.194330 -8.731296 -168.715077 -75.453301 -12.984951 -1.715750 58.402978 36.964439 -38.041271 -19.641464 1.740472 9.377127 -4.312155 11.550332 -159.931680 74.652113 22.021376 -17.367736 -64.295584 -16.275286 -72.461922 14.339132 -2.542371 -12.715158 19.670820 -43.379986 
-252.850337 0.000000 -520.349658 0.000000 42.047382 0.000000 1.001674 90.389549 -1.704971 96.277054 -4.261118 -178.186596 177.167976 -5.709508 172.943299 -24.608760 -4.875718 -0.527103 81.502413 -1.207329 -7.405829 21.454558 0.003104 0.000018 151.183258 4.033791 -172.187211 -78.379165 -0.476741 4.829419 75.484251 -3.703111 -0.950445 21.454558 -0.003099 0.000004 8.352334 -0.694202 -1.867487 6.713304 -1.279196 -3.772193 6.395885 -1.302075 -3.764419 10.348706 -1.388479 -6.492569 -11.927573 4.904588 -8.417895 -169.387311 -75.896121 -12.297451 -3.352051 59.271492 35.268350 -40.989446 -20.193862 1.851417 8.729429 -4.286135 10.268731 -160.157280 74.560090 21.791710 -16.661566 -63.966926 -19.290287 -66.679092 16.269273 -2.444660 -10.403468 21.751769 -37.862886 
-252.261135 0.000000 -521.746740 0.000000 41.236716 0.000000 0.861342 90.555645 -1.664358 95.812125 -4.097605 -178.852281 178.488136 -5.400218 171.698417 -23.453308 -4.656891 -0.776890 81.946361 -1.039480 -7.579261 21.454557 0.003108 0.000018 149.299535 3.708942 -172.379142 -75.906449 0.469677 4.325708 75.278160 -3.174691 -0.224894 21.454559 -0.003097 0.000002 8.289843 -0.630904 -1.919240 6.586644 -1.151867 -3.871320 6.269271 -1.175348 -3.864314 9.302371 -1.270698 -6.285899 -11.494888 4.542622 -8.056213 -169.645707 -76.460572 -12.033702 -5.081200 60.156088 33.327891 -44.122422 -20.710221 1.974380 8.141740 -4.482888 9.276368 -160.415188 74.639861 21.526465 -16.377254 -63.725837 -21.381170 -60.824286 17.590725 -2.309320 -6.745440 22.773256 -31.302209 
-251.612398 0.000000 -523.109752 0.000000 40.418104 0.000000 0.703361 90.638618 -1.652937 95.369398 -3.966689 -179.477815 179.689914 -5.013396 170.775411 -22.496731 -4.506242 -1.163297 82.482668 -0.763669 -7.747899 21.454558 0.003113 0.000018 147.724806 3.235999 -172.496441 -72.814993 1.299185 4.272675 74.994335 -2.935051 0.551056 21.454562 -0.003096 -0.000000 8.248757 -0.568848 -1.986947 6.502860 -1.025486 -4.002727 6.185552 -1.049760 -3.996482 8.037078 -1.131439 -6.045141 -10.863498 4.078621 -7.618019 -169.812394 -76.939317 -11.863938 -6.946903 60.780321 31.003351 -47.456922 -21.098118 2.104706 7.507237 -4.782891 9.002619 -160.736658 74.859409 21.194314 -16.630041 -63.520949 -22.438588 -54.881634 18.253517 -2.133461 -2.170882 22.609154 -23.873728 
